<svg width="693" height="345" viewBox="0 0 693 345" fill="none" xmlns="http://www.w3.org/2000/svg">
<path d="M112.569 223.839C110.158 205.655 102.844 188.47 91.4124 174.125C79.0241 156.994 63.9279 141.995 46.7169 129.718C39.1327 124.367 31.2362 119.472 23.0695 115.061L20.7589 113.869C18.125 114.561 15.6533 115.765 13.4851 117.413C11.3169 119.061 9.49477 121.12 8.12286 123.473C6.69522 126.343 5.9654 129.509 5.99279 132.715C5.88124 137.048 6.84896 141.341 8.80882 145.207C57.2229 171.128 87.5494 204.307 95.9614 228.243C99.319 237.738 103.507 257.884 100.438 273.805C99.6308 278.297 98.184 282.649 96.1419 286.73C92.8613 292.785 88.4059 298.124 83.0365 302.435C86.0281 300.564 88.8437 298.425 91.4485 296.045C117.876 271.422 113.363 230.048 112.569 223.839ZM25.5967 144.412C23.833 144.412 22.1089 143.889 20.6424 142.909C19.176 141.93 18.033 140.537 17.3581 138.907C16.6831 137.278 16.5065 135.485 16.8506 133.755C17.1947 132.025 18.044 130.436 19.2911 129.189C20.5382 127.942 22.1272 127.093 23.857 126.749C25.5868 126.405 27.3798 126.581 29.0093 127.256C30.6387 127.931 32.0314 129.074 33.0113 130.541C33.9911 132.007 34.5141 133.731 34.5141 135.495C34.5046 137.857 33.5621 140.12 31.8918 141.79C30.2215 143.46 27.9588 144.403 25.5967 144.412Z" fill="#1E88E5"/>
<path d="M119.25 284.251L86.2503 300.001C128.581 257.67 121.5 175.501 21.0002 115.501C20.5534 115.187 20.5896 114.789 20.6295 114.389L20.2502 113.251L66.7502 131.252L113.25 161.252L119.25 284.251Z" fill="#1976D2"/>
<path d="M159.683 148.564C161.375 147.449 162.788 145.961 163.814 144.215C164.841 142.469 165.453 140.511 165.604 138.491C165.857 135.385 165.033 132.287 163.271 129.716C161.509 127.146 158.917 125.26 155.929 124.375C155.015 124.084 154.069 123.902 153.113 123.833C151.33 123.676 149.533 123.877 147.829 124.422C146.124 124.968 144.545 125.847 143.184 127.01C145.687 124.729 147.224 121.578 147.481 118.201C147.689 115.54 147.112 112.877 145.821 110.54C144.531 108.204 142.584 106.297 140.221 105.056C137.858 103.815 135.183 103.294 132.527 103.558C129.87 103.821 127.35 104.858 125.277 106.54C126.89 104.741 127.993 102.545 128.474 100.178C128.954 97.8109 128.794 95.3583 128.011 93.0735C127.227 90.7887 125.848 88.7544 124.016 87.1805C122.183 85.6065 119.964 84.55 117.587 84.1199L116.215 83.9394C106.709 82.5993 97.5815 79.3123 89.4034 74.2838C81.2254 69.2553 74.1728 62.5936 68.6867 54.7152C63.2006 46.8368 59.3991 37.9112 57.5198 28.4966C55.6405 19.082 55.7239 9.38089 57.7648 0C43.6959 5.76986 31.5012 15.3256 22.5344 27.6064C13.5675 39.8872 8.17932 54.4127 6.96789 69.5704C6.66147 73.5961 6.66147 77.6392 6.96789 81.6649C7.14816 85.7725 7.69182 89.8561 8.59252 93.8677C10.7196 101.534 14.9165 108.466 20.7231 113.905L23.0337 115.096C31.2005 119.508 39.0969 124.403 46.6811 129.754C63.8907 141.974 78.9984 156.911 91.4127 173.98C99.5359 186.183 109.717 201.31 112.569 223.694C114.624 244.89 109.896 266.191 99.0666 284.527C95.0733 291.565 89.6791 297.709 83.2174 302.579C74.6782 308.872 64.3646 312.297 53.7573 312.363C47.0897 312.293 40.5059 310.869 34.4061 308.175C27.531 305.259 21.5872 300.514 17.2211 294.456C3.04602 276.02 5.89883 250.897 23.0698 230.445C15.8137 236.846 10.0035 244.719 6.02581 253.54C2.0481 262.361 -0.00603848 271.927 1.33334e-05 281.603C0.229521 290.436 2.2152 299.136 5.84128 307.194C9.46736 315.252 14.6613 322.507 21.1202 328.537C25.6425 332.578 30.6806 336.002 36.103 338.718C42.175 341.765 48.717 343.766 55.4542 344.639C59.3523 345.045 63.2788 345.106 67.1876 344.819C74.0755 344.477 80.9293 343.633 87.6941 342.292C105.245 338.095 121.795 330.476 136.397 319.872C150.203 309.227 161.568 295.747 169.726 280.339C177.884 264.932 182.646 247.956 183.692 230.554C184.344 214.035 181.895 197.54 176.471 181.923C172.433 170.085 166.784 158.86 159.683 148.564ZM114.519 104.699C113.552 104.598 112.616 104.303 111.766 103.831C110.916 103.36 110.17 102.721 109.573 101.955C108.45 100.576 107.906 98.8161 108.056 97.0448C108.15 95.6082 108.672 94.2324 109.553 93.0943C110.435 91.9562 111.637 91.1076 113.004 90.6576C114.372 90.2075 115.843 90.1766 117.228 90.5687C118.613 90.9608 119.85 91.758 120.778 92.8581C121.707 93.9581 122.286 95.3107 122.44 96.742C122.595 98.1734 122.318 99.6183 121.645 100.891C120.972 102.164 119.934 103.206 118.664 103.885C117.394 104.563 115.951 104.847 114.519 104.699ZM138.527 122.75C137.442 123.634 136.124 124.183 134.733 124.331C133.342 124.48 131.938 124.221 130.691 123.586C129.444 122.951 128.409 121.968 127.71 120.755C127.012 119.543 126.681 118.154 126.758 116.757C126.823 115.641 127.171 114.561 127.768 113.616C128.637 112.293 129.916 111.291 131.409 110.766C132.902 110.241 134.527 110.221 136.033 110.709C137.538 111.197 138.842 112.167 139.743 113.468C140.643 114.77 141.092 116.331 141.018 117.912C140.797 119.711 139.908 121.36 138.527 122.533V122.75ZM156.145 143.401C154.793 144.224 153.207 144.579 151.632 144.412C149.755 144.246 148.017 143.353 146.789 141.923C145.561 140.493 144.941 138.639 145.062 136.758C145.129 135.807 145.391 134.881 145.832 134.036C146.273 133.191 146.883 132.446 147.625 131.848C148.658 130.994 149.908 130.444 151.235 130.26C151.703 130.205 152.176 130.205 152.643 130.26C154.521 130.434 156.256 131.336 157.477 132.773C158.698 134.21 159.309 136.068 159.178 137.949C159.081 138.989 158.76 139.996 158.236 140.9C157.713 141.804 156.999 142.583 156.145 143.184V143.401Z" fill="#16A75C"/>
<path d="M70.5002 316.501L55.5002 312.751C134.858 297.217 174.933 237.324 159.75 148.501L162.75 156.001L174 197.251L164.25 258.751L114.75 306.751L70.5002 316.501Z" fill="#069550"/>
<path d="M159.683 148.563C162.463 156.253 181.345 210.841 150.333 258.208C123.508 299.329 67.4765 322.544 34.4061 307.994C27.5339 305.074 21.5912 300.33 17.2211 294.275C12.3063 287.326 6.9 273.7 9.2 269.1C9.25025 256.574 14.4396 243.069 23.0698 230.445C15.8137 236.846 10.0035 244.719 6.02581 253.539C2.0481 262.36 -0.00603848 271.927 1.33334e-05 281.603C0.229521 290.436 2.2152 299.135 5.84128 307.193C9.46736 315.251 14.6613 322.507 21.1202 328.537C25.6425 332.578 30.6806 336.001 36.103 338.718C42.1732 341.769 48.716 343.771 55.4542 344.639C59.3523 345.045 63.2788 345.105 67.1876 344.819C74.0755 344.477 80.9293 343.632 87.6941 342.292C105.245 338.094 121.795 330.476 136.397 319.872C150.203 309.226 161.568 295.746 169.726 280.339C177.884 264.932 182.646 247.956 183.692 230.553C184.344 214.034 181.895 197.539 176.471 181.922C172.433 170.085 166.784 158.86 159.683 148.563Z" fill="#FFC800"/>
<path d="M67.2237 220.228V221.564C68.6318 221.564 69.7509 222.033 69.7509 222.575C69.7509 223.117 68.6678 223.514 67.2959 223.55V224.958C68.6678 224.958 69.7509 225.463 69.7509 225.969C69.7509 226.474 68.704 226.871 67.3681 226.943V228.352C68.704 228.352 69.7148 228.857 69.7148 229.362C69.7148 229.868 68.704 230.265 67.4042 230.337V231.745C68.704 231.745 69.6787 232.251 69.6787 232.756C69.6787 233.262 68.704 233.623 67.4404 233.731V235.139C68.704 235.139 69.6426 235.644 69.6426 236.15C69.6426 236.655 68.704 237.016 67.4765 237.125V240.735C67.4672 240.939 67.3794 241.132 67.2314 241.273C67.0835 241.414 66.8867 241.493 66.6822 241.493H67.7292H68.0902L74.0833 243.623C74.3698 243.682 74.6221 243.85 74.7861 244.092C74.9501 244.334 75.0129 244.631 74.961 244.918C74.9091 245.206 74.7467 245.462 74.5084 245.632C74.2702 245.801 73.975 245.871 73.6862 245.825H59.6421C59.3532 245.871 59.0581 245.801 58.8198 245.632C58.5816 245.462 58.4191 245.206 58.3672 244.918C58.3153 244.631 58.3781 244.334 58.5422 244.092C58.7062 243.85 58.9585 243.682 59.245 243.623L64.9853 241.89H65.3825H66.8266C66.7177 241.896 66.6088 241.878 66.5074 241.838C66.406 241.798 66.3145 241.736 66.2391 241.657C66.1637 241.578 66.1062 241.484 66.0705 241.381C66.0348 241.278 66.0218 241.168 66.0323 241.06V237.449C64.8048 237.449 63.8662 236.944 63.8662 236.475C63.8662 236.005 64.8048 235.572 66.0684 235.464V234.056C64.8048 234.056 63.8301 233.55 63.8301 233.081C63.8301 232.612 64.8048 232.178 66.1045 232.07V230.662C64.8048 230.662 63.7939 230.157 63.7939 229.687C63.7939 229.218 64.8048 228.749 66.1406 228.676V227.088C64.8048 227.088 63.7578 226.582 63.7578 226.113C63.7578 225.644 64.8409 225.138 66.2128 225.102V223.839C64.8409 223.839 63.7578 223.369 63.7578 222.864C63.7578 222.358 64.877 221.889 66.2851 221.853V220.228H66.7544H66.5017L64.0467 219.615C60.7953 218.914 57.4803 218.551 54.1545 218.531C43.6622 218.551 33.4791 222.085 25.2311 228.571C16.9832 235.056 11.1463 244.118 8.65243 254.31C6.15857 264.501 7.15163 275.235 11.473 284.796C15.7944 294.357 23.1949 302.194 32.4927 307.056V290.015C32.5024 289.865 32.4819 289.715 32.4323 289.573C32.3827 289.431 32.3051 289.301 32.204 289.19C32.1029 289.079 31.9805 288.989 31.844 288.926C31.7075 288.863 31.5598 288.829 31.4096 288.824H22.3116C21.9872 288.819 21.6769 288.69 21.4452 288.463L8.98965 274.383C8.84448 274.216 8.75028 274.011 8.71824 273.792C8.68621 273.573 8.71769 273.35 8.80894 273.148C8.90019 272.947 9.04738 272.775 9.23301 272.655C9.41864 272.535 9.63491 272.47 9.85612 272.469H100.114C100.303 272.417 100.502 272.417 100.691 272.469C101.081 270.082 101.274 267.667 101.269 265.249C101.245 255.067 97.9113 245.17 91.7702 237.049C85.6291 228.928 77.0138 223.024 67.2237 220.228ZM43.3236 248.497H90.2574C90.4748 248.488 90.6902 248.542 90.8772 248.653C91.0643 248.764 91.2149 248.927 91.3107 249.123C91.4065 249.318 91.4432 249.537 91.4165 249.753C91.3897 249.969 91.3006 250.172 91.16 250.338L87.5497 255.104C87.3759 255.34 87.1188 255.501 86.8305 255.555C86.5423 255.608 86.2444 255.55 85.9973 255.393L85.0947 254.779C84.8934 254.727 84.6822 254.727 84.4809 254.779H49.786C49.6094 254.726 49.421 254.726 49.2445 254.779L47.8364 255.537C47.6006 255.656 47.3327 255.695 47.0725 255.65C46.8123 255.604 46.5738 255.476 46.3923 255.284L42.3488 250.41C42.1959 250.237 42.0988 250.021 42.0699 249.792C42.041 249.562 42.0817 249.329 42.1867 249.123C42.2917 248.917 42.4563 248.747 42.659 248.635C42.8617 248.524 43.0932 248.475 43.3236 248.497ZM99.4637 265.465H39.8938C39.6927 265.412 39.4811 265.412 39.28 265.465L35.6697 267.595C35.4711 267.742 35.2307 267.821 34.9838 267.821C34.7369 267.821 34.4965 267.742 34.2978 267.595L27.9437 261.314C27.781 261.144 27.6741 260.928 27.6372 260.696C27.6003 260.463 27.6352 260.225 27.7373 260.013C27.8393 259.801 28.0036 259.626 28.2083 259.51C28.4129 259.394 28.6481 259.343 28.8824 259.364H97.478C97.697 259.358 97.9129 259.416 98.099 259.532C98.2851 259.647 98.4332 259.815 98.525 260.014L100.33 263.841C100.415 264.007 100.456 264.192 100.451 264.378C100.446 264.564 100.395 264.746 100.301 264.908C100.208 265.069 100.076 265.205 99.9172 265.302C99.7583 265.399 99.5776 265.456 99.3915 265.465H99.4637ZM40.7242 281.603C40.4177 281.603 40.1239 281.725 39.9072 281.942C39.6906 282.158 39.5689 282.452 39.5689 282.759V309.872C44.3053 311.458 49.268 312.262 54.2628 312.255C66.1724 312.279 77.6459 307.775 86.3583 299.655V288.824C86.3583 288.518 86.48 288.224 86.6967 288.007C86.9133 287.79 87.2072 287.669 87.5136 287.669H94.9508C95.1393 287.612 95.34 287.612 95.5285 287.669C96.5875 285.715 97.5044 283.688 98.2723 281.603H40.7242ZM59.0645 302.326C59.0693 302.476 59.0439 302.626 58.9899 302.766C58.9358 302.906 58.8541 303.034 58.7497 303.141C58.6453 303.249 58.5203 303.335 58.3821 303.393C58.2439 303.452 58.0953 303.482 57.9453 303.482H48.2336C47.9272 303.482 47.6333 303.36 47.4167 303.143C47.2 302.927 47.0783 302.633 47.0783 302.326V288.824C47.0783 288.518 47.2 288.224 47.4167 288.007C47.6333 287.79 47.9272 287.669 48.2336 287.669H57.9453C58.0953 287.669 58.2439 287.699 58.3821 287.757C58.5203 287.816 58.6453 287.901 58.7497 288.009C58.8541 288.117 58.9358 288.245 58.9899 288.385C59.0439 288.525 59.0693 288.674 59.0645 288.824V302.326ZM78.9211 302.326C78.9211 302.633 78.7994 302.927 78.5827 303.143C78.3661 303.36 78.0722 303.482 77.7658 303.482H67.657C67.3506 303.482 67.0567 303.36 66.84 303.143C66.6234 302.927 66.5017 302.633 66.5017 302.326V288.824C66.5017 288.518 66.6234 288.224 66.84 288.007C67.0567 287.79 67.3506 287.669 67.657 287.669H77.7658C78.0722 287.669 78.3661 287.79 78.5827 288.007C78.7994 288.224 78.9211 288.518 78.9211 288.824V302.326Z" fill="#1E88E5"/>
<path d="M238.799 118.386C238.799 127.998 262.451 128.106 262.451 119.25C262.451 113.958 256.187 112.77 248.627 112.338C232.211 111.15 221.411 105.534 221.195 89.1183C220.547 56.5023 279.299 56.5023 278.867 89.1183C272.063 89.1183 267.095 89.1183 260.507 89.1183C260.507 79.0743 240.203 79.9383 239.555 88.9023C239.123 94.6263 244.739 95.8143 251.543 96.5703C266.555 98.1903 281.243 100.458 281.243 119.358C281.243 151.11 219.683 151.65 220.115 118.386C226.595 118.386 232.211 118.386 238.799 118.386ZM344.342 141.498L339.914 131.994H310.106L305.678 141.498H286.778V138.69L320.798 64.9263H329.114L363.242 138.69V141.498H344.342ZM333.65 115.47L324.902 95.5983L316.37 115.47H333.65ZM392.933 141.498C386.237 141.498 379.757 141.498 373.277 141.498V65.8983C379.757 65.8983 386.237 65.8983 392.933 65.8983V94.5183H394.337C413.669 94.5183 412.697 80.0463 412.697 65.8983C419.285 65.8983 425.873 65.8983 432.569 65.8983C432.569 81.3423 433.001 95.5983 417.989 105.21L438.509 138.474V141.498H417.017L400.385 112.23C397.793 112.662 395.417 112.662 392.933 112.662V141.498ZM460.758 83.1783H442.182C442.182 77.3463 442.182 71.6223 442.182 65.8983H498.342C498.342 71.6223 498.342 77.3463 498.342 83.1783H479.874V141.498C473.502 141.498 467.13 141.498 460.758 141.498V83.1783ZM532.742 124.542H542.354C542.354 130.914 542.354 134.91 542.354 141.498C529.502 141.498 516.866 141.498 504.014 141.498C504.014 134.91 504.014 130.914 504.014 124.542H513.626V82.7463H504.77C504.77 76.2663 504.77 72.2703 504.77 65.8983C517.082 65.8983 529.286 65.8983 541.598 65.8983C541.598 72.2703 541.598 76.2663 541.598 82.7463H532.742V124.542Z" fill="#fff"/>
<path d="M278.219 181.898V232.334C278.219 248.858 264.611 258.362 249.059 258.362C233.507 258.362 220.763 248.858 220.763 232.334V222.506C226.703 222.506 232.967 222.506 239.015 222.506V232.01C239.015 237.95 243.443 241.082 249.059 241.082C254.675 241.082 258.455 238.058 258.455 232.01V199.07H247.439C247.439 193.13 247.439 187.514 247.439 181.898H278.219ZM344.975 257.498L340.547 247.994H310.739L306.311 257.498H287.411V254.69L321.431 180.926H329.747L363.875 254.69V257.498H344.975ZM334.283 231.47L325.535 211.598L317.003 231.47H334.283ZM408.01 183.086C411.034 183.086 413.194 183.086 416.218 183.086L429.07 223.262H429.394L432.742 210.41L442.354 181.898H461.578V184.814L435.334 258.254H424.21L412.114 221.858H411.79L399.694 258.254H389.002L362.434 184.814V181.898H381.982L391.702 210.41L395.05 223.262H395.374L408.01 183.086ZM517.627 257.498L513.199 247.994H483.391L478.963 257.498H460.063V254.69L494.083 180.926H502.399L536.527 254.69V257.498H517.627ZM506.935 231.47L498.187 211.598L489.655 231.47H506.935ZM595.486 230.714L610.282 254.69V257.498H588.682L575.722 235.25H565.678V257.498C559.198 257.498 552.61 257.498 546.346 257.498C546.346 232.334 546.346 207.17 546.346 181.898C557.254 181.898 568.486 181.898 579.502 181.898C609.202 182.006 614.602 217.754 595.486 230.714ZM579.502 218.078C589.978 218.078 590.518 199.286 579.502 199.178C574.966 199.07 570.214 199.178 565.678 199.178C565.678 205.334 565.678 212.03 565.678 218.078H579.502ZM673.51 257.498L669.082 247.994H639.274L634.846 257.498H615.946V254.69L649.966 180.926H658.282L692.41 254.69V257.498H673.51ZM662.818 231.47L654.07 211.598L645.538 231.47H662.818Z" fill="#fff"/>
</svg>
